<?xml version="1.0" encoding="utf-8"?>
<!-- Generator: Adobe Illustrator 15.0.2, SVG Export Plug-In . SVG Version: 6.00 Build 0)  -->
<!DOCTYPE svg PUBLIC "-//W3C//DTD SVG 1.1//EN" "http://www.w3.org/Graphics/SVG/1.1/DTD/svg11.dtd">
<svg version="1.1" id="Warstwa_1" xmlns="http://www.w3.org/2000/svg" xmlns:xlink="http://www.w3.org/1999/xlink" x="0px" y="0px"
	 width="595.281px" height="90.509px" viewBox="0 373.445 595.281 90.509" enable-background="new 0 373.445 595.281 90.509"
	 xml:space="preserve">
<path fill="#008651" d="M580.75,391.649c0-1.79-1.268-2.685-3.803-2.685h-1.609v5.222h1.902
	C579.58,394.186,580.75,393.34,580.75,391.649 M586.455,405.118h-5.9l-3.656-7.759h-1.561v7.759h-5.363v-19.521h7.852
	c5.623,0,8.434,1.887,8.434,5.661c0,2.7-1.381,4.458-4.145,5.271L586.455,405.118L586.455,405.118z M592.062,395.748
	c0-4.067-1.398-7.516-4.209-10.346c-2.813-2.83-6.258-4.246-10.32-4.246c-4.064,0-7.492,1.416-10.305,4.246
	c-2.811,2.831-4.227,6.279-4.227,10.346c0,3.969,1.432,7.385,4.275,10.248s6.24,4.294,10.207,4.294
	c4.063,0,7.508-1.415,10.336-4.229C590.648,403.247,592.062,399.814,592.062,395.748L592.062,395.748z M595.281,395.748
	c0,4.945-1.723,9.142-5.186,12.606c-3.461,3.465-7.67,5.206-12.611,5.206c-4.875,0-9.053-1.757-12.531-5.254
	c-3.479-3.497-5.217-7.678-5.217-12.558c0-4.945,1.738-9.158,5.201-12.624c3.461-3.464,7.639-5.188,12.547-5.188
	c5.006,0,9.23,1.708,12.66,5.14C593.574,386.509,595.281,390.737,595.281,395.748z M531.554,436.041l-7.119-23.035
	c-0.064-0.26-0.844-3.383-2.34-9.369c-1.234,5.075-2.047,8.198-2.438,9.369l-7.021,23.035H531.554L531.554,436.041z M557.98,462.1
	h-18.918l-3.51-12.493h-27.012l-3.607,12.493h-18.918l24.086-69.784h23.793L557.98,462.1z M490.597,462.1h-23.695l-22.721-31.329
	V462.1h-18.82v-69.784h18.82v31.721l22.039-31.721h22.135l-25.744,34.063L490.597,462.1z M414.748,439.358
	c0,7.679-2.568,13.762-7.703,18.252c-4.875,4.229-11.215,6.344-19.016,6.344c-9.297,0-17.553-3.416-24.77-10.248l8.582-14.152
	c5.592,6.377,11.117,9.565,16.578,9.565c2.34,0,4.371-0.635,6.094-1.903c1.723-1.27,2.584-3.042,2.584-5.319
	c0-2.538-0.975-4.522-2.926-5.953c-1.561-1.106-4.484-2.213-8.775-3.319c-5.98-1.562-10.402-3.61-13.262-6.148
	c-3.641-3.188-5.461-7.58-5.461-13.176c0-6.897,2.275-12.395,6.826-16.494c4.551-4.1,10.303-6.149,17.26-6.149
	c7.801,0,14.691,2.083,20.672,6.247l-5.947,13.664c-4.355-3.708-8.809-5.563-13.359-5.563c-2.016,0-3.738,0.456-5.168,1.367
	c-1.691,1.106-2.537,2.603-2.537,4.489c0,2.212,1.074,3.904,3.219,5.075c1.236,0.716,3.869,1.594,7.898,2.635
	c6.436,1.692,11.086,3.905,13.945,6.637C412.994,428.461,414.748,433.178,414.748,439.358L414.748,439.358z M337.792,427.354
	c0-5.596-1.625-10.345-4.877-14.249c-3.445-4.164-7.898-6.246-13.357-6.246c-5.463,0-9.916,2.082-13.361,6.246
	c-3.25,3.904-4.875,8.653-4.875,14.249c0,5.727,1.592,10.509,4.777,14.348c3.381,4.1,7.867,6.148,13.457,6.148
	c5.527,0,10.012-2.081,13.457-6.246C336.199,437.765,337.792,433.015,337.792,427.354L337.792,427.354z M356.808,427.354
	c0,10.281-3.625,18.951-10.873,26.012c-7.248,7.059-16.041,10.589-26.377,10.589c-8.777,0-16.676-2.798-23.697-8.394
	c-9.037-7.223-13.555-16.624-13.555-28.207c0-10.215,3.641-18.869,10.922-25.961s16.057-10.639,26.33-10.639
	c10.336,0,19.129,3.53,26.377,10.589C353.183,408.403,356.808,417.074,356.808,427.354z M274.895,407.639h-24.183v12.103h22.818
	v14.933h-22.818V462.1h-18.528v-69.784h42.711V407.639L274.895,407.639z M216.874,462.1h-19.21v-69.784h19.21V462.1L216.874,462.1z
	 M187.912,462.1h-42.614v-69.784h19.016v53.485h23.599V462.1z M114.385,427.354c0-5.596-1.625-10.345-4.876-14.249
	c-3.445-4.164-7.898-6.246-13.359-6.246c-5.461,0-9.915,2.082-13.36,6.246c-3.251,3.904-4.876,8.653-4.876,14.249
	c0,5.727,1.593,10.509,4.778,14.348c3.381,4.1,7.866,6.148,13.458,6.148c5.525,0,10.011-2.081,13.457-6.246
	C112.792,437.765,114.385,433.015,114.385,427.354z M133.401,427.354c0,10.281-3.625,18.951-10.873,26.012
	c-7.249,7.059-16.041,10.589-26.377,10.589c-8.776,0-16.675-2.798-23.696-8.394c-9.037-7.223-13.555-16.624-13.555-28.207
	c0-10.215,3.641-18.869,10.922-25.961c7.281-7.092,16.057-10.639,26.329-10.639c10.336,0,19.129,3.53,26.377,10.589
	C129.776,408.403,133.401,417.074,133.401,427.354z M33.741,415.447c0-3.383-1.268-5.661-3.803-6.832
	c-1.691-0.846-4.453-1.27-8.289-1.27h-3.803v16.397h3.608c3.9,0,6.729-0.424,8.484-1.269
	C32.473,421.238,33.741,418.896,33.741,415.447z M52.17,416.033c0,9.435-3.218,16.071-9.654,19.911
	c-3.51,2.082-9.068,3.123-16.675,3.123h-7.997V462.1H0v-69.784h21.258c5.461,0,9.394,0.163,11.799,0.488
	c3.771,0.521,6.891,1.562,9.361,3.123C48.92,400.091,52.17,406.793,52.17,416.033z"/>
</svg>
